<mxfile host="app.diagrams.net" modified="2023-09-09T22:07:38.401Z" agent="Mozilla/5.0 (Windows NT 10.0; Win64; x64) AppleWebKit/537.36 (KHTML, like Gecko) Chrome/114.0.0.0 Safari/537.36 OPR/100.0.0.0" version="21.7.2" etag="b3B4HUV_QSoD07QwjI7Y" type="github">
  <diagram name="Page-1" id="dMskLS3s49mohi3oFVOJ">
    <mxGraphModel>
      <root>
        <mxCell id="0" />
        <mxCell id="1" parent="0" />
      </root>
    </mxGraphModel>
  </diagram>
</mxfile>
